<?xml version="1.0" encoding="UTF-8"?><svg id="a" xmlns="http://www.w3.org/2000/svg" viewBox="0 0 48 48"><path d="M24.00867,11.67444c-6.69464-.05579-12.18225,5.38434-12.33868,12.02289-.16205,7.00641,5.5882,12.72534,12.51752,12.61932,6.62756-.10583,12.01453-5.49023,12.14307-12.07867.12854-6.95062-5.53229-12.61371-12.3219-12.56354ZM23.98071,31.95789h-.00006c-4.39221,0-7.95746-3.57281-7.95746-7.9707,0-4.40332,3.57642-7.97064,7.97986-7.97064,4.39227,0,7.96881,3.56732,7.96881,7.95959,0,4.41455-3.57654,7.98737-7.99115,7.98175ZM47.84003,13.98785c-.07269-1.4436-.25146-2.86493-.63147-4.26398-.84375-3.09351-2.57056-5.56274-5.25842-7.31854-1.98383-1.29871-4.21344-1.93976-6.55493-2.12927-1.83295-.15045-3.67706-.22852-5.51556-.24524-3.37524-.039-6.73938-.039-10.11456-.01117-2.16266.02234-4.33093.10034-6.49908.18951-1.53119.06689-3.01764.35675-4.46497.8584-3.26349,1.13153-5.66644,3.24402-7.17523,6.34314-.96118,1.9787-1.35791,4.11353-1.4585,6.29291-.08942,1.82825-.15649,3.65094-.15088,5.47357.01117,4.91064-.10059,9.81573.13965,14.72083.06152,1.27075.20123,2.53613.49176,3.77905.67059,2.8761,2.08441,5.30078,4.39795,7.16815,1.91669,1.54395,4.13525,2.3465,6.52698,2.72559,1.9447.30652,3.90619.32892,5.86761.36224,2.19055.03906,4.37549.01123,6.56042.01123,0,.01666,0,.03906.00562.05573,2.89465-.03351,5.79492-.07239,8.68976-.12268,1.60931-.02783,3.20758-.13934,4.78906-.48492,3.20197-.69666,5.83398-2.28522,7.77307-4.9552,1.51996-2.09576,2.24652-4.49817,2.46436-7.05096.15656-1.7948.2403-3.60638.2403-5.41223.00562-5.32867.13416-10.65747-.12292-15.98615ZM43.58191,31.62933c-.04468,1.53839-.07269,3.08801-.36322,4.60974-.44147,2.27972-1.48651,4.19159-3.4256,5.54596-1.07294.75256-2.27997,1.15936-3.54852,1.41028-1.38031.27307-2.78296.31763-4.17987.34546-2.6936.05591-5.37585.08374-8.06934.12268v-.03894c-1.73804,0-3.48151.02789-5.2251-.00562-1.77692-.03345-3.55402-.08917-5.32544-.18958-1.64856-.09467-3.24115-.44586-4.68854-1.27643-2.10669-1.21503-3.34167-3.06555-3.88934-5.41223-.26825-1.15936-.37439-2.33545-.40796-3.52264-.03351-1.17615-.07819-2.35229-.0838-3.52832-.02234-3.64545-.03912-7.29626-.01678-10.9472.01117-1.75024.08942-3.50049.19-5.25061.10059-1.6778.45264-3.30536,1.31885-4.7713,1.15118-1.95648,2.87231-3.16602,5.0517-3.74573,1.11768-.29541,2.26324-.42914,3.41443-.47931,4.24695-.20068,8.4884-.13379,12.72986-.13934,1.53668,0,3.07349.01111,4.61029.06128,1.44733.04462,2.90027.06689,4.33081.31775,2.2688.39569,4.21906,1.34888,5.63849,3.2384.84375,1.12598,1.302,2.41351,1.57025,3.77911.26819,1.38232.32416,2.78137.34082,4.18042.0448,3.80151.06708,7.60284.08386,11.4043.01123,1.42688-.00562,2.85944-.05585,4.29187ZM39.67737,11.20142c0,1.59973-1.28522,2.88727-2.87787,2.89288-1.59265.00555-2.9115-1.31549-2.90588-2.90405.00562-1.60529,1.29651-2.8761,2.92267-2.8761,1.60376,0,2.86108,1.27081,2.86108,2.88727Z"/></svg>