<?xml version="1.0" encoding="UTF-8"?><svg id="a" xmlns="http://www.w3.org/2000/svg" viewBox="0 0 48 48"><path d="M44.40002,0H3.59998C1.61176,0,0,1.61176,0,3.59998v40.80005c0,1.98822,1.61176,3.59998,3.59998,3.59998h40.80005c1.98822,0,3.59998-1.61176,3.59998-3.59998V3.59998c0-1.98822-1.61176-3.59998-3.59998-3.59998ZM14.40002,40.79999h-7.20001v-21.59998h7.20001v21.59998ZM10.79999,15c-2.31866-.06628-4.14453-1.99963-4.07825-4.3183.06622-2.31866,1.99963-4.14453,4.3183-4.07825,2.27124.06488,4.07904,1.92432,4.07996,4.19653-.03943,2.35004-1.96979,4.22675-4.32001,4.20001ZM33.59998,40.79999v-11.37598c0-3.40802-1.44-4.63202-3.31195-4.63202-2.30127.1532-4.0426,2.14294-3.8894,4.44421.00043.00659.00092.01318.0014.01978-.01196.11169-.01196.2243,0,.336v11.20801h-7.20001v-21.59998h6.95996v3.12c1.42773-2.17181,3.88232-3.44458,6.48004-3.36005,3.71997,0,8.06396,2.06403,8.06396,8.784l.09601,13.05603h-7.20001Z"/></svg>