<?xml version="1.0" encoding="UTF-8"?><svg id="a" xmlns="http://www.w3.org/2000/svg" viewBox="0 0 48 48"><path d="M24.95104.02024C11.70715-.50576.54526,9.80408.01926,23.04798c-.526,13.24585,9.78385,24.40786,23.0297,24.93178,13.2439.526,24.40578-9.78385,24.93178-23.02774S38.19482.54416,24.95104.02024ZM35.08303,35.17775l-.00012.00012c-.39209.68701-1.26635.92687-1.95396.53601-3.17294-1.8054-6.6601-2.99106-10.27591-3.49399-3.61398-.51318-7.29266-.33471-10.83987.526-.77758.15088-1.53014-.35705-1.68101-1.13451-.14099-.7268.29443-1.44152,1.005-1.6494,3.89999-.94799,7.90984-1.14208,11.91591-.58007,4.00594.56408,7.80584,1.85606,11.29384,3.84005.6881.39196.92809,1.26769.53613,1.95579ZM38.23693,28.87801c-.48767.90404-1.61595,1.24169-2.52.75414l-.00403-.0022c-3.71554-2.00877-7.76067-3.3364-11.94386-3.92001-4.18221-.59204-8.43657-.43078-12.5619.47607-1.00292.22229-1.9962-.4104-2.21849-1.41332-.00049-.0022-.00098-.00452-.00159-.00671-.22229-1.00292.4104-1.99608,1.41332-2.21849.0022-.00049.00452-.00098.00671-.00146,4.55806-1.00378,9.25919-1.18126,13.87988-.52404,4.623.64196,9.09318,2.10862,13.19788,4.33004.90404.48999,1.23998,1.61998.75195,2.52598h.00012ZM38.64086,22.75196c-4.32674-2.24937-9.00602-3.74289-13.83581-4.41598-4.82845-.68481-9.73844-.5393-14.51793.43005-1.24352.23645-2.44334-.57995-2.67966-1.82359-.2323-1.22167.55212-2.40574,1.76768-2.66831,5.2895-1.07372,10.72366-1.23607,16.06785-.4801,5.34578.74621,10.52493,2.4,15.31383,4.88997,1.12206.58398,1.56004,1.968.97607,3.09201-.58483,1.12279-1.96861,1.55956-3.09201.97594Z"/></svg>