<?xml version="1.0" encoding="UTF-8"?><svg id="a" xmlns="http://www.w3.org/2000/svg" viewBox="0 0 48 48"><path d="M47.98349,22.90952c-.22601-6.18518-2.8324-12.04388-7.27521-16.35291C36.26541,2.24759,30.32974-.17862,24.14065-.2153h-.11688c-4.16791-.00305-8.26465,1.07898-11.88745,3.13977-3.62274,2.06079-6.64655,5.0293-8.77386,8.61334C1.23514,15.12192.0776,19.19815.00375,23.36527c-.07379,4.1673.93854,8.2818,2.93756,11.93909l-2.12262,12.70154c-.00348.026-.00134.05249.00623.0777.00757.02515.02045.0484.03772.06824.01727.0199.03857.03571.0625.04669.02386.01099.0498.0166.07611.01678h.0365l12.56281-2.79443c3.24597,1.55835,6.8006,2.36694,10.40125,2.36597h.68646c3.16736-.09039,6.28546-.80713,9.17419-2.10895,2.88885-1.30182,5.49121-3.16284,7.65704-5.47577,2.16577-2.31287,3.85211-5.03174,4.96155-7.99988,1.10938-2.96802,1.62-6.12628,1.50244-9.29272ZM38.31271,37.49796c-3.59436,3.76093-8.52216,5.95935-13.7218,6.12164l-.02197-.00745h-.56714c-3.18219.00403-6.31885-.75745-9.1452-2.21991l-.64258-.33594-8.51965,2.01312,1.57245-8.61951-.36511-.61835c-1.7439-2.97314-2.68323-6.34937-2.7254-9.7962-.04224-3.44659.81409-6.84497,2.48462-9.86005,1.67059-3.01508,4.09772-5.54303,7.04236-7.33478,2.9447-1.79181,6.3053-2.78564,9.75098-2.88361h.57678c5.20227.01538,10.19012,2.07379,13.8891,5.73175s5.81293,8.62268,5.88641,13.82428c.07324,5.20178-1.89966,10.224-5.49384,13.98499ZM35.98923,29.93821c.14368.24347.10718,1.46051-.43817,2.85291-.54517,1.3924-3.0451,2.67273-4.15271,2.74084-.32855.01953-.64252.06329-1.0589.06329-1.01007,0-2.56793-.26282-6.12195-1.79401-6.04651-2.59717-9.71722-9.00165-10.0069-9.41296-.28967-.41138-2.36115-3.34467-2.26868-6.30939.09253-2.96484,1.69177-4.37671,2.26379-4.96332.20251-.2168.44647-.39081.71741-.51166.27094-.12079.56335-.18604.85992-.19183v-.00732h.05115c.40167.01221.80328.02435,1.15375.04871.42609.03168.91296.06573,1.32184,1.10028.50385,1.20978,1.57739,4.22571,1.72095,4.53241.09021.16095.13898.34161.14185.52612.00311.18433-.03986.36664-.12476.53033-.16418.35272-.37726.68042-.633.97357-.31158.34338-.63525.74005-.93713,1.0274-.30188.28717-.63281.60358-.30188,1.21704.85657,1.58026,1.94269,3.02478,3.2229,4.28656,1.37012,1.34155,2.97925,2.41492,4.74426,3.16449.20422.10687.42938.16754.65961.17773.12494-.00226.24811-.0307.36127-.0835.11322-.05292.21411-.12897.29596-.22327.375-.37982,1.49231-1.69666,1.979-2.30286.07587-.12427.18097-.22839.30609-.30298.12512-.07477.26654-.11774.41199-.12531.22339.01648.44202.0733.64508.16791.54773.21906,3.46149,1.77692,4.05542,2.0885.59393.31152.98828.48688,1.13184.73029Z" fill="currentColor"/></svg>